<svg data-name="Isolation Mode" xmlns="http://www.w3.org/2000/svg" viewBox="0 0 224.4 114.7">
  <defs>
    <clipPath id="a">
      <path fill="none" d="M0 0h224.4v114.77H0z"/>
    </clipPath>
	<style type="text/css">
		keyframes flickerAnimation {
		  0%   { opacity:1; }
		  50%  { opacity:0; }
		  100% { opacity:1; }
		}
		@-o-keyframes flickerAnimation{
		  0%   { opacity:1; }
		  50%  { opacity:0; }
		  100% { opacity:1; }
		}
		@-moz-keyframes flickerAnimation{
		  0%   { opacity:1; }
		  50%  { opacity:0; }
		  100% { opacity:1; }
		}
		@-webkit-keyframes flickerAnimation{
		  0%   { opacity:1; }
		  50%  { opacity:0; }
		  100% { opacity:1; }
		}
		.animate-flicker {
		   -webkit-animation: flickerAnimation 1s infinite;
		   -moz-animation: flickerAnimation 1s infinite;
		   -o-animation: flickerAnimation 1s infinite;
			animation: flickerAnimation 1s infinite;
		}
		
		
		keyframes flickerAnimation2 {
		  20%   { opacity:1; }
		  70%  { opacity:0; }
		  100% { opacity:1; }
		}
		@-o-keyframes flickerAnimation2{
		  20%   { opacity:1; }
		  70%  { opacity:0; }
		  100% { opacity:1; }
		}
		@-moz-keyframes flickerAnimation2{
		  20%   { opacity:1; }
		  70%  { opacity:0; }
		  100% { opacity:1; }
		}
		@-webkit-keyframes flickerAnimation2{
		  20%   { opacity:1; }
		  70%  { opacity:0; }
		  100% { opacity:1; }
		}
		.animate-flicker2 {
		   -webkit-animation: flickerAnimation2 1s infinite;
		   -moz-animation: flickerAnimation2 1s infinite;
		   -o-animation: flickerAnimation2 1s infinite;
			animation: flickerAnimation2 1s infinite;
		}
		
		
	</style>
  </defs>
  <g clip-path="url(#a)">
    <path class="animate-flicker" d="M223.2 36.5a3.8 3.8 0 0 1-2.8 1.2 3.9 3.9 0 0 1-2.8-1.2 4 4 0 0 1-1.2-2.8 4 4 0 0 1 6.8-2.8 3.9 3.9 0 0 1 1.2 2.8 3.6 3.6 0 0 1-1.2 2.8" fill="#61c2b7"/>
    <path class="animate-flicker2" d="M204.2 36.7a3.9 3.9 0 0 1-.7-5.3h.1a3.8 3.8 0 0 1 5.9 4.7q0 .1-.3.3a3.7 3.7 0 0 1-5 .3" fill="#61c2b7"/>
	<path class="animate-flicker" d="M190.7 39.3a3.1 3.1 0 0 1-1.3-4.2 3.2 3.2 0 0 1 4.2-1.2 3.1 3.1 0 0 1 1.2 4.2l-.5.7a3 3 0 0 1-3.6.5" fill="#00b0a2"/>
    <path class="animate-flicker2" d="M180.8 43.2a2.2 2.2 0 0 1-3 0 1.7 1.7 0 0 1-.6-1.5 2.2 2.2 0 0 1 2.1-2.1 2.1 2.1 0 0 1 2.1 2.1 2 2 0 0 1-.6 1.5" fill="#009d8f"/>

    <path class="animate-flicker" d="M81.6 36.9a4.5 4.5 0 0 0 1.2-2.9 4.4 4.4 0 0 0-1.2-2.8 3.8 3.8 0 0 0-2.8-1.1 4.1 4.1 0 0 0-4 4 4.3 4.3 0 0 0 1.1 2.8 4.6 4.6 0 0 0 2.9 1.1 4.3 4.3 0 0 0 2.8-1.1" fill="#61c2b7"/>
    <path class="animate-flicker2" d="M95.8 36.8l-.4.3a3.7 3.7 0 0 1-5.3-.7 3.8 3.8 0 0 1 .6-5.3h.1a3.7 3.7 0 0 1 5.3.7 3.8 3.8 0 0 1-.3 5" fill="#61c2b7"/>
	<path class="animate-flicker" d="M109.3 39.1l-.7.5a3 3 0 0 1-4.2-1.2 3.2 3.2 0 0 1 1.2-4.2 3.1 3.1 0 0 1 4.2 1.3 3 3 0 0 1-.5 3.6" fill="#00b0a2"/>
    <path class="animate-flicker2" d="M121.4 43.5a2 2 0 0 0 .6-1.5 2.2 2.2 0 0 0-.6-1.5 2 2 0 0 0-1.5-.6 2.2 2.2 0 0 0-2.1 2.1 2 2 0 0 0 .6 1.5 2.3 2.3 0 0 0 1.5.7 2.1 2.1 0 0 0 1.5-.7" fill="#009d8f"/>
	
	
	<path class="animate-flicker2" d="M223.1 23.1a4.3 4.3 0 0 1-6.2 0 4.7 4.7 0 0 1-1.4-3.1 4.7 4.7 0 0 1 4.5-4.5 4.6 4.6 0 0 1 3.1 1.3 4.6 4.6 0 0 1 1.3 3.2 4.6 4.6 0 0 1-1.3 3.1" fill="#61c2b7"/>
	<path class="animate-flicker" d="M204 23.4a4 4 0 1 1 5.6-.6h.1l-.3.3a4 4 0 0 1-5.4.3" fill="#00b0a2"/>
	<path class="animate-flicker2" d="M191.9 25.6a3.8 3.8 0 0 1-1.2-5.1 3.7 3.7 0 0 1 5.1-1.2 3.6 3.6 0 0 1 1.2 5.1 1.5 1.5 0 0 1-.5.6 3.8 3.8 0 0 1-4.6.6" fill="#00b0a2"/>
	<path class="animate-flicker" d="M180.4 29.1a3.2 3.2 0 0 1-1.6-4 3.2 3.2 0 0 1 4.1-1.7 3.3 3.3 0 0 1 1.6 4.1 3.6 3.6 0 0 1-.7 1 3.2 3.2 0 0 1-3.4.6" fill="#009d8f"/>
    <path class="animate-flicker2" d="M169.3 34.5a2.9 2.9 0 0 1-2-3.5 2.8 2.8 0 0 1 3.5-1.9 2.8 2.8 0 0 1 2 3.4 3.5 3.5 0 0 1-.8 1.3 2.7 2.7 0 0 1-2.7.7" fill="#009d8f"/>
	<path class="animate-flicker" d="M159 41.1a2.2 2.2 0 0 1-2-2.6 2.3 2.3 0 0 1 2.6-2 2.3 2.3 0 0 1 2 2.6 2.2 2.2 0 0 1-.6 1.4 2.1 2.1 0 0 1-2 .6" fill="#009082"/>
	
	
	<path class="animate-flicker2" d="M82.4 23.4a5.1 5.1 0 0 0 1.3-3.1 4.9 4.9 0 0 0-1.3-3.1 4.5 4.5 0 0 0-3.2-1.4 4.7 4.7 0 0 0-4.4 4.5 4.4 4.4 0 0 0 4.4 4.4 4.6 4.6 0 0 0 3.2-1.3" fill="#61c2b7"/>
	<path class="animate-flicker" d="M95.1 23.5l-.3.3a3.5 3.5 0 1 1 .3-.2" fill="#00b0a2"/>
	<path class="animate-flicker2" d="M107.9 25.4l-.6.5a3.7 3.7 0 0 1-5.1-1.2 3.7 3.7 0 0 1 1.2-5.1 3.8 3.8 0 0 1 5.1 1.2 3.8 3.8 0 0 1-.6 4.6" fill="#00b0a2"/>
	<path class="animate-flicker" d="M119.7 28.8a1.5 1.5 0 0 1-.9.6 3.1 3.1 0 0 1-4.1-1.6 3.2 3.2 0 0 1 1.6-4 3.1 3.1 0 0 1 3.4 5" fill="#009d8f"/>
	<path class="animate-flicker2" d="M131.1 34.1a2.4 2.4 0 0 1-1.2.7 2.7 2.7 0 0 1-3.4-1.9 2.7 2.7 0 0 1 1.9-3.5 2.8 2.8 0 0 1 2.7 4.7" fill="#009d8f"/>
	<path class="animate-flicker" d="M141.6 40.8a2.7 2.7 0 0 1-1.4.7 2.3 2.3 0 0 1-2.6-2 2.4 2.4 0 0 1 2-2.7 2.3 2.3 0 0 1 2.6 2 2.3 2.3 0 0 1-.6 2" fill="#009082"/>
	
	
	<path class="animate-flicker" d="M222.9 8.6a4.9 4.9 0 0 1-3.6 1.5 5.1 5.1 0 0 1-3.5-1.5 4.9 4.9 0 0 1-1.5-3.5 5.3 5.3 0 0 1 5-5.1 4.9 4.9 0 0 1 3.6 1.5 5.1 5.1 0 0 1 1.5 3.6 5.1 5.1 0 0 1-1.5 3.5" fill="#00b0a2"/>
	<path class="animate-flicker2" d="M203.9 9.9a4.6 4.6 0 0 1-.5-6.4 4.7 4.7 0 0 1 6.5-.6 4.7 4.7 0 0 1 .5 6.5l-.3.3a4.6 4.6 0 0 1-6.2.2" fill="#00b0a2"/>
	<path class="animate-flicker" d="M192 12.5a4.5 4.5 0 0 1-1.3-6.3 4.6 4.6 0 1 1 7.6 5.1l-.5.7a4.5 4.5 0 0 1-5.8.5" fill="#009d8f"/>
	<path class="animate-flicker2" d="M180.7 15.4a3.8 3.8 0 0 1-1.7-5.2 3.9 3.9 0 0 1 5.2-1.8 4.1 4.1 0 0 1 1.8 5.3l-.8 1a3.9 3.9 0 0 1-4.5.7" fill="#009d8f"/>
	<path class="animate-flicker" d="M169.8 19.3a3 3 0 1 1 3.9-1.8 3 3 0 0 1-.7 1.1 3.1 3.1 0 0 1-3.2.7" fill="#009d8f"/>
	<path class="animate-flicker2" d="M159.3 25.4a2.6 2.6 0 0 1-1.9-3.1 2.6 2.6 0 0 1 3.1-1.9 2.6 2.6 0 0 1 1.8 3.1 2.3 2.3 0 0 1-.6 1.2 2.6 2.6 0 0 1-2.4.7" fill="#009082"/>
    
    
    <path class="animate-flicker" d="M83.4 8.6a4.6 4.6 0 0 0 1.4-3.5 4.8 4.8 0 0 0-1.4-3.6A5.5 5.5 0 0 0 79.8 0a5.2 5.2 0 0 0-5 5.1 4.7 4.7 0 0 0 1.5 3.5 4.7 4.7 0 0 0 3.5 1.5 5.1 5.1 0 0 0 3.6-1.5" fill="#00b0a2"/>
    <path class="animate-flicker2" d="M95.5 10.2l-.2.2a4.6 4.6 0 0 1-6.5-.5 4.5 4.5 0 0 1 .6-6.4 4.5 4.5 0 0 1 6.4.5 4.6 4.6 0 0 1-.3 6.2" fill="#00b0a2"/>
    <path class="animate-flicker" d="M107.9 12.3a1.8 1.8 0 0 1-.7.5 4.5 4.5 0 0 1-6.3-1.2 4.6 4.6 0 0 1 1.2-6.4 4.7 4.7 0 0 1 6.4 1.3 4.7 4.7 0 0 1-.6 5.8" fill="#009d8f"/>
    <path class="animate-flicker2" d="M119.5 15l-1 .7a3.8 3.8 0 0 1-5.2-1.7 3.9 3.9 0 1 1 6.9-3.5 3.8 3.8 0 0 1-.7 4.5" fill="#009d8f"/>
    <path class="animate-flicker" d="M130.5 19a4.1 4.1 0 0 1-1.1.7 3.2 3.2 0 0 1-3.9-1.8 3.2 3.2 0 0 1 1.8-3.9 3 3 0 0 1 3.9 1.8 3.1 3.1 0 0 1-.7 3.2" fill="#009d8f"/>
    <path class="animate-flicker2" d="M141.1 25.1a2.3 2.3 0 0 1-1.2.6 2.4 2.4 0 0 1-3-1.8 2.522 2.522 0 1 1 4.9-1.2 2.6 2.6 0 0 1-.7 2.4" fill="#009082"/>
    
    
    <path class="animate-flicker" d="M151.2 32.3a2.4 2.4 0 0 1-1.7.7 2.4 2.4 0 0 1-1.6-.7 1.9 1.9 0 0 1-.7-1.7 2.4 2.4 0 0 1 2.3-2.3 2 2 0 0 1 1.7.7 2.4 2.4 0 0 1 .7 1.6 2.1 2.1 0 0 1-.7 1.7" fill="#009082"/>
    <path class="animate-flicker" d="M151 49.3a1.9 1.9 0 0 1-1.5.6 2.1 2.1 0 0 1-2.1-2.1 2.3 2.3 0 0 1 2.1-2.2 2 2 0 0 1 1.6.7 2 2 0 0 1 .6 1.5 1.9 1.9 0 0 1-.7 1.5" fill="#009082"/>
    
    
    
    
    
    
    
    
    
    
    
    
    <path d="M71.4 101.3c-.5.5-.5 1.2-.6 2.1v6.9h1.3v-4.7h2.3v-.9h-2.3v-1a5.1 5.1 0 0 1 .2-1.3 2 2 0 0 1 .4-.8.7.7 0 0 1 .6-.4l.8-.2h.7v-.8h-.7l-1.6.2-1.1.8" fill="#949598"/>
    <path d="M57 102.7h-1.3v4.3a4.3 4.3 0 0 1-.2 1.2 1.9 1.9 0 0 1-.4.9.9.9 0 0 1-.6.4h-1.3l-.7-.4a3.9 3.9 0 0 1-.4-.9c0-.3-.1-.7-.1-1.2v-4.3h-1.3v4.6a3.1 3.1 0 0 0 .5 2 2.5 2.5 0 0 0 1.2.8 5 5 0 0 0 1.3.3h.2a4.9 4.9 0 0 0 1.4-.3h.4v1.5a4.3 4.3 0 0 1-.2 1.2 1.9 1.9 0 0 1-.4.9.9.9 0 0 1-.6.4h-.8v.8a4 4 0 0 0 1.5-.3 2.8 2.8 0 0 0 1.1-.8 3.2 3.2 0 0 0 .6-2v-4.6z" fill="#949598"/>
    <path d="M14.9 101.9a.7.7 0 0 0 .7-.7v-.2a.7.7 0 0 0-.7-.7.8.8 0 0 0-.7.7v.2a.8.8 0 0 0 .7.7" fill="#949598"/>
    <path fill="#949598" d="M14.2 102.7h1.4v7.59h-1.4z"/>
    <path d="M29.1 101.9a.7.7 0 0 0 .7-.7v-.2a.7.7 0 1 0-1.4 0v.2a.7.7 0 0 0 .7.7" fill="#949598"/>
    <path fill="#949598" d="M28.4 102.6h1.4v7.69h-1.4z"/>
    <path d="M130.3 101.7a.7.7 0 0 0 .7-.7.7.7 0 0 0-.7-.7.8.8 0 0 0-.7.7.8.8 0 0 0 .7.7" fill="#949598"/>
    <path fill="#949598" d="M129.6 102.6h1.4v7.69h-1.4z"/>
    <path d="M98.4 107.7v-5H97v4a3.7 3.7 0 0 0 .9 2.6 2.8 2.8 0 0 0 1.1.8l1.3.2h4.1v-7.6h-1.5v6.9h-2.6a1.9 1.9 0 0 1-1.9-1.9" fill="#949598"/>
    <path d="M88.2 103.7a4.2 4.2 0 0 0-.8 2.6v.4a3.6 3.6 0 0 0 .8 2.6 2.5 2.5 0 0 0 1.2.8l1.3.3h4.2v-10.1h-1.4v2.4h-2.8l-1.3.2a3.6 3.6 0 0 0-1.2.8m2.7-.3h2.6v6.2h-2.6a1.8 1.8 0 0 1-1.9-1.8v-2.5a1.9 1.9 0 0 1 1.9-1.9" fill="#949598"/>
    <path d="M147.6 102.9l-1.3-.2h-4.1v7.7h1.4v-7h2.7a1.9 1.9 0 0 1 1.8 1.9v5.1h1.5v-4.1a3.7 3.7 0 0 0-.9-2.6 3.1 3.1 0 0 0-1.1-.8" fill="#949598"/>
    <path d="M106.2 105.8v.9a3.7 3.7 0 0 0 .9 2.6 2.8 2.8 0 0 0 1.1.8l1.3.3h3.4v-.8h-3.2a1.9 1.9 0 0 1-1.9-1.8v-2.6a1.9 1.9 0 0 1 1.9-1.8h3.2v-.7h-3.4l-1.3.2-1.1.8a3.2 3.2 0 0 0-.9 2.1" fill="#949598"/>
    <path d="M37.4 106.8a2.5 2.5 0 0 0-1.2-.8l-.9-.2c-.7-.1-1.6-.2-1.8-1.1a1.1 1.1 0 0 1 1-1.2h2.2v-1h-.8a4.8 4.8 0 0 0-2.4.2 3 3 0 0 0-1.1.7 2 2 0 0 0 0 2.5 2.5 2.5 0 0 0 1.2.8l1 .2h.1a1.7 1.7 0 0 1 1.3.4 1.1 1.1 0 0 1 .2 1.2 2.2 2.2 0 0 1-2.1.9h-1.6v1H35a3.4 3.4 0 0 0 2.4-1 1.8 1.8 0 0 0 .4-1.7 2 2 0 0 0-.4-.8" fill="#949598"/>
    <path fill="#949598" d="M5.6 108l-3.9-7.8H0v10.1h1.4v-7.2l3.7 7.2h.7l3.7-7.4.3-.5v7.9h1.5v-10.1H9.7l-3.9 7.9h-.2v-.1z"/>
    <path fill="#949598" d="M81 105.3h3.6v-.8H81v-3.4h5.4v-.9h-6.8v10.1h6.8v-.7H81v-4.3z"/>
    <path d="M41.1 109a1.5 1.5 0 0 1-.4-.8 4.3 4.3 0 0 1-.2-1.2v-3.3h2.3v-1h-2.3v-2.3h-1.3v6.9a3.2 3.2 0 0 0 .6 2 2.8 2.8 0 0 0 1.1.8 4.1 4.1 0 0 0 1.6.2h.6v-.7h-1.4a1.5 1.5 0 0 1-.6-.5" fill="#949598"/>
    <path d="M44.9 105.9v4.5h1.4v-4.2a5.3 5.3 0 0 1 .1-1.3 1.9 1.9 0 0 1 .4-.9l.7-.4H49v-.8h-.8l-1.6.2-1.1.8a3.2 3.2 0 0 0-.6 2.2" fill="#949598"/>
    <path d="M138.6 102.9l-1.3-.2h-.9l-1.3.2a2.3 2.3 0 0 0-1.1.8 3.3 3.3 0 0 0-.9 2.5v.6a3.3 3.3 0 0 0 .9 2.5 2.3 2.3 0 0 0 1.1.8l1.3.2h.9l1.3-.2a2.8 2.8 0 0 0 1.1-.8 3.3 3.3 0 0 0 .8-2.5v-.6a3.6 3.6 0 0 0-.8-2.5 2.8 2.8 0 0 0-1.1-.8m.4 4.9a2.8 2.8 0 0 1-.4 1.1 2.1 2.1 0 0 1-1.5.7h-.6c-1.5 0-1.8-1.5-1.9-2.2s-.1-2.6.6-3.4a1.6 1.6 0 0 1 1.3-.6h.6c1.5 0 1.8 1.5 1.9 2.1a5.9 5.9 0 0 1 0 2.3" fill="#949598"/>
    <path d="M113.9 106.4v1a3 3 0 0 0 .8 1.9 2.5 2.5 0 0 0 1.2.8l.6.2h2.2l.8-.2.5-.3h.1v.5h1.5v-7.6h-4.4l-1.3.2a3.6 3.6 0 0 0-1.2.8 4 4 0 0 0-.9 2.7m1.7-1.1a1.9 1.9 0 0 1 1.9-1.9h2.7v4.3a2 2 0 0 1-2 1.9h-.7a1.8 1.8 0 0 1-1.9-1.9 7.3 7.3 0 0 1 0-2.4" fill="#949598"/>
    <path d="M126.5 109.5a1.8 1.8 0 0 1-.7-.5 2.2 2.2 0 0 1-.3-.8 4.3 4.3 0 0 1-.2-1.2v-3.5h2.3v-.8h-2.3v-2.3H124v6.9a3.2 3.2 0 0 0 .6 2 2.3 2.3 0 0 0 1.1.8 3.7 3.7 0 0 0 1.6.2h.6v-.7h-1.4" fill="#949598"/>
    <path d="M67.4 102.9l-1.3-.2h-.9l-1.3.2a2.3 2.3 0 0 0-1.1.8 3.3 3.3 0 0 0-.9 2.5v.6a3.7 3.7 0 0 0 .9 2.6 3 3 0 0 0 1.1.7 5 5 0 0 0 1.3.3h.9a5 5 0 0 0 1.3-.3 4.1 4.1 0 0 0 1.1-.7 3.7 3.7 0 0 0 .8-2.6v-.6a3.3 3.3 0 0 0-.8-2.5 2.8 2.8 0 0 0-1.1-.8m.4 4.9a2.8 2.8 0 0 1-.4 1.1 1.7 1.7 0 0 1-1.5.7h-.5c-1.6 0-1.9-1.5-2-2.2s-.1-2.6.6-3.4a1.8 1.8 0 0 1 1.4-.6h.5a2 2 0 0 1 1.9 2.1 5.9 5.9 0 0 1 0 2.3" fill="#949598"/>
    <path d="M23.7 102.9l-1.4-.2h-4v7.7h1.4v-7h2.6a1.9 1.9 0 0 1 1.9 1.9v5.1h1.5v-4.1a3.7 3.7 0 0 0-.9-2.6l-1.1-.8" fill="#949598"/>
    <path d="M106.2 72.7a1.2 1.2 0 0 0 1.2-1.2 1.2 1.2 0 0 0-1.2-1.3 1.3 1.3 0 0 0-1.3 1.3 1.2 1.2 0 0 0 1.3 1.2" fill="#009082"/>
    <path d="M130.8 75.5v10.2a7.9 7.9 0 0 1-.2 1.7 2.8 2.8 0 0 1-.5 1.1l-.8.5-1.1.2v1.2a7.8 7.8 0 0 0 2.2-.3A4.2 4.2 0 0 0 132 89a5.4 5.4 0 0 0 1.2-3.2V75.5z" fill="#009082"/>
    <path fill="#009082" d="M124.5 70.2h2.3v14.97h-2.3z"/>
    <path d="M118.5 75.5v10.2a7.9 7.9 0 0 1-.2 1.7 2.8 2.8 0 0 1-.5 1.1l-.8.5-1.1.2h-.1l.2 1.2a6.6 6.6 0 0 0 2.1-.3 3.8 3.8 0 0 0 1.6-1.1 5.4 5.4 0 0 0 1.2-3.2V75.5z" fill="#009082"/>
    <path d="M100.8 80.5v4.7h13.4v-9.7h-8.4a5 5 0 0 0-5 5m11-3.1v5.7h-8.7v-2.8a2.9 2.9 0 0 1 2.9-2.9z" fill="#009082"/>
    <path d="M74.6 72.7a1.2 1.2 0 0 0 1.3-1.2 1.3 1.3 0 0 0-2.6 0 1.2 1.2 0 0 0 1.3 1.2" fill="#009082"/>
    <path d="M17.1 87.8a1.3 1.3 0 0 0-1.3 1.3 1.2 1.2 0 0 0 1.3 1.2 1.2 1.2 0 0 0 1.2-1.2 1.2 1.2 0 0 0-1.2-1.3" fill="#009082"/>
    <path d="M20.7 87.8a1.2 1.2 0 0 0-1.2 1.3 1.2 1.2 0 0 0 1.2 1.2 1.2 1.2 0 0 0 1.3-1.2 1.3 1.3 0 0 0-1.3-1.3" fill="#009082"/>
    <path d="M78.3 72.7a1.2 1.2 0 0 0 1.3-1.2 1.3 1.3 0 1 0-2.6 0 1.2 1.2 0 0 0 1.3 1.2" fill="#009082"/>
    <path d="M109.9 72.7a1.2 1.2 0 0 0 1.2-1.2 1.2 1.2 0 0 0-1.2-1.3 1.3 1.3 0 0 0-1.3 1.3 1.2 1.2 0 0 0 1.3 1.2" fill="#009082"/>
    <path d="M132 70.2a1.2 1.2 0 0 0-1.2 1.3 1.2 1.2 0 0 0 1.2 1.2 1.2 1.2 0 0 0 1.3-1.2 1.3 1.3 0 0 0-1.3-1.3" fill="#009082"/>
    <path d="M84.5 83.1h-5.9v-7.6h-2.3v7.6H53v-2.7a2.9 2.9 0 0 1 3-3h9.9v-1.9H55.8a5.1 5.1 0 0 0-5.2 5.1v2.5H31.8V70.2h-2.3v12.9H23v-7.6h-2.4v7.6h-4.4v-2.3a5 5 0 0 0-1.5-3.9 5.7 5.7 0 0 0-3.8-1.4H1.6v9.8a8.6 8.6 0 0 1-.1 1.7 2.8 2.8 0 0 1-.5 1.1l-.8.5H0V90l1.3-.3a4.6 4.6 0 0 0 1.6-1.1 5.4 5.4 0 0 0 1.2-3.2v-.2h82.8v-15h-2.4zM4.2 77.4h7.2a3 3 0 0 1 2.4 2.9v2.8H4.1v-5.6h.1" fill="#009082"/>
    <path d="M149.6 75.5h-8.2a5.1 5.1 0 0 0-5.1 5.1v4.6h10.9v.5a7.9 7.9 0 0 1-.2 1.7 2.8 2.8 0 0 1-.5 1.1l-.8.5h-.4v1.3a7.6 7.6 0 0 0 1.6-.3 4.2 4.2 0 0 0 1.5-1.1 5.4 5.4 0 0 0 1.2-3.2zm-8.1 1.9h5.7V83h-8.6v-2.7a2.9 2.9 0 0 1 2.9-2.9" fill="#009082"/>
    <path fill="#009082" d="M90.4 70.2h2.3v14.97h-2.3z"/>
  </g>
</svg>